<svg width="29" height="28" viewBox="0 0 29 28" fill="none" xmlns="http://www.w3.org/2000/svg">
<path d="M27.7038 23.2939L21.0905 16.8696C22.1215 15.2258 22.6653 13.3374 22.662 11.4126C22.662 5.60369 17.4803 0.571686 11.5005 0.571686C10.0788 0.571463 8.67101 0.84332 7.35749 1.37173C6.04398 1.90014 4.85049 2.67475 3.84521 3.65131C2.83992 4.62788 2.04253 5.78726 1.49858 7.06325C0.954626 8.33923 0.674773 9.70682 0.675003 11.0879C0.675003 16.8951 5.85675 21.9288 11.8348 21.9288C13.7509 21.9305 15.6328 21.4351 17.286 20.494L23.9343 26.9557C24.2469 27.2586 24.6704 27.4287 25.112 27.4287C25.5536 27.4287 25.9771 27.2586 26.2898 26.9557L27.94 25.3526C28.5893 24.7219 28.353 23.9246 27.7038 23.2939ZM4.007 11.0879C4.00677 10.1318 4.20043 9.18503 4.57691 8.30166C4.95339 7.41828 5.50532 6.61561 6.20118 5.93947C6.89704 5.26334 7.72319 4.72699 8.63246 4.36106C9.54173 3.99513 10.5163 3.80679 11.5005 3.80679C15.641 3.80679 19.33 7.38869 19.33 11.4126C19.3295 13.3435 18.5397 15.1952 17.1342 16.5606C15.7287 17.926 13.8225 18.6932 11.8348 18.6937C7.69425 18.692 4.007 15.1084 4.007 11.0879Z" fill="#8FAEDD"/>
</svg>
